<?xml version="1.0" encoding="utf-8"?>
<!-- Generator: Adobe Illustrator 19.1.0, SVG Export Plug-In . SVG Version: 6.00 Build 0)  -->
<svg version="1.1" xmlns="http://www.w3.org/2000/svg" xmlns:xlink="http://www.w3.org/1999/xlink" x="0px" y="0px"
	 viewBox="0 0 120 120" style="enable-background:new 0 0 120 120;" xml:space="preserve">
<style type="text/css">
	.st0{fill:#1C75BC;}
	.st1{opacity:0.25;}
	.st2{fill:#FFFFFF;}
	.st3{display:none;}
	.st4{display:inline;}
	.st5{fill:none;stroke:#000000;stroke-width:0.25;stroke-miterlimit:10;}
</style>
<g id="Layer_2">
	<g>
		<circle class="st0" cx="60" cy="60" r="60"/>
	</g>
	<g class="st1">
		<polygon class="st2" points="21.3,84.8 30.3,84.8 30.3,57 35.2,66.8 45.3,66.8 55.8,46 55.8,84.8 64,84.8 64,33.8 53.8,33.8 
			42.6,57.3 38.8,57.3 28.5,33.8 21.5,33.8 		"/>
	</g>
	<g class="st1">
		<path class="st2" d="M94.2,34.5l7.5,12.2v23l-7,15.1H71.2V34.5H94.2z M80.2,42.7v32.7h10.3l2.5-5.8V49.3l-3-6.7H80.2z"/>
	</g>
	<g>
		<g>
			<path class="st2" d="M23.5,34.4h-3.8c-0.2,0-0.3,0-0.4-0.1c-0.1-0.1-0.1-0.1-0.1-0.3s0-0.2,0.1-0.3c0.1-0.1,0.2-0.1,0.4-0.1h3.8
				c0.2,0,0.3,0,0.4,0.1c0.1,0.1,0.1,0.1,0.1,0.3c0,0.1,0,0.2-0.1,0.3C23.8,34.3,23.7,34.4,23.5,34.4z"/>
			<path class="st2" d="M27.7,34.4h-3.8c-0.2,0-0.3,0-0.4-0.1c-0.1-0.1-0.1-0.1-0.1-0.3s0-0.2,0.1-0.3c0.1-0.1,0.2-0.1,0.4-0.1h3.8
				c0.2,0,0.3,0,0.4,0.1c0.1,0.1,0.1,0.1,0.1,0.3c0,0.1,0,0.2-0.1,0.3C28,34.3,27.9,34.4,27.7,34.4z"/>
			<path class="st2" d="M57.1,34.4h-3.8c-0.2,0-0.3,0-0.4-0.1c-0.1-0.1-0.1-0.1-0.1-0.3s0-0.2,0.1-0.3c0.1-0.1,0.2-0.1,0.4-0.1h3.8
				c0.2,0,0.3,0,0.4,0.1c0.1,0.1,0.1,0.1,0.1,0.3c0,0.1,0,0.2-0.1,0.3C57.4,34.3,57.3,34.4,57.1,34.4z"/>
			<path class="st2" d="M61.3,34.4h-3.8c-0.2,0-0.3,0-0.4-0.1C57,34.2,57,34.1,57,34s0-0.2,0.1-0.3c0.1-0.1,0.2-0.1,0.4-0.1h3.8
				c0.2,0,0.3,0,0.4,0.1c0.1,0.1,0.1,0.1,0.1,0.3c0,0.1,0,0.2-0.1,0.3C61.6,34.3,61.5,34.4,61.3,34.4z"/>
			<path class="st2" d="M21.9,36.9v4.2c0,0.2,0,0.4,0,0.4c0,0.1-0.1,0.1-0.1,0.2s-0.1,0.1-0.2,0.1c-0.1,0-0.2,0-0.2-0.1
				s-0.1-0.1-0.1-0.2c0,0,0-0.2,0-0.4v-4.2c0-0.2,0-0.4,0-0.4c0-0.1,0.1-0.1,0.1-0.2s0.1-0.1,0.2-0.1c0.1,0,0.1,0,0.2,0.1
				s0.1,0.1,0.1,0.2C21.9,36.5,21.9,36.7,21.9,36.9z"/>
			<path class="st2" d="M29.2,36l2.2,4.8c0,0,0,0.1,0.1,0.2c0,0.1,0,0.1,0,0.1c0,0.1,0,0.2-0.1,0.2c-0.1,0.1-0.1,0.1-0.2,0.1
				c-0.1,0-0.2,0-0.2-0.1s-0.1-0.1-0.2-0.2l-2.2-4.8c-0.1-0.1-0.1-0.2-0.1-0.3c0-0.1,0-0.2,0.1-0.2s0.2-0.1,0.2-0.1
				c0.1,0,0.2,0,0.2,0.1S29.1,35.9,29.2,36z"/>
			<path class="st2" d="M52.4,36.3l-2.2,4.8c-0.1,0.1-0.1,0.2-0.2,0.2c-0.1,0-0.1,0.1-0.2,0.1c-0.1,0-0.2,0-0.2-0.1
				s-0.1-0.1-0.1-0.2c0-0.1,0-0.2,0.1-0.3l2.3-4.8c0.1-0.1,0.1-0.2,0.2-0.2c0.1,0,0.1-0.1,0.2-0.1c0.1,0,0.2,0,0.2,0.1
				c0.1,0.1,0.1,0.1,0.1,0.2C52.5,36.1,52.5,36.2,52.4,36.3z"/>
			<path class="st2" d="M63.9,36.9v4.2c0,0.2,0,0.4,0,0.4c0,0.1-0.1,0.1-0.1,0.2s-0.1,0.1-0.2,0.1c-0.1,0-0.2,0-0.2-0.1
				s-0.1-0.1-0.1-0.2c0,0,0-0.2,0-0.4v-4.2c0-0.2,0-0.4,0-0.4c0-0.1,0.1-0.1,0.1-0.2s0.1-0.1,0.2-0.1c0.1,0,0.1,0,0.2,0.1
				s0.1,0.1,0.1,0.2C63.9,36.5,63.9,36.7,63.9,36.9z"/>
			<path class="st2" d="M21.9,45.3v4.2c0,0.2,0,0.4,0,0.4c0,0.1-0.1,0.1-0.1,0.2s-0.1,0.1-0.2,0.1c-0.1,0-0.2,0-0.2-0.1
				s-0.1-0.1-0.1-0.2c0,0,0-0.2,0-0.4v-4.2c0-0.2,0-0.4,0-0.4c0-0.1,0.1-0.1,0.1-0.2s0.1-0.1,0.2-0.1c0.1,0,0.1,0,0.2,0.1
				s0.1,0.1,0.1,0.2C21.9,44.9,21.9,45.1,21.9,45.3z"/>
			<path class="st2" d="M33.4,44.4l2.2,4.8c0,0,0,0.1,0.1,0.2c0,0.1,0,0.1,0,0.1c0,0.1,0,0.2-0.1,0.2c-0.1,0.1-0.1,0.1-0.2,0.1
				c-0.1,0-0.2,0-0.2-0.1S35,49.7,35,49.5l-2.2-4.8c-0.1-0.1-0.1-0.2-0.1-0.3c0-0.1,0-0.2,0.1-0.2s0.2-0.1,0.2-0.1
				c0.1,0,0.2,0,0.2,0.1S33.3,44.3,33.4,44.4z"/>
			<path class="st2" d="M48.2,44.7L46,49.5c-0.1,0.1-0.1,0.2-0.2,0.2c-0.1,0-0.1,0.1-0.2,0.1c-0.1,0-0.2,0-0.2-0.1s-0.1-0.1-0.1-0.2
				c0-0.1,0-0.2,0.1-0.3l2.3-4.8c0.1-0.1,0.1-0.2,0.2-0.2c0.1,0,0.1-0.1,0.2-0.1c0.1,0,0.2,0,0.2,0.1c0.1,0.1,0.1,0.1,0.1,0.2
				C48.3,44.5,48.3,44.6,48.2,44.7z"/>
			<path class="st2" d="M63.9,45.3v4.2c0,0.2,0,0.4,0,0.4c0,0.1-0.1,0.1-0.1,0.2s-0.1,0.1-0.2,0.1c-0.1,0-0.2,0-0.2-0.1
				s-0.1-0.1-0.1-0.2c0,0,0-0.2,0-0.4v-4.2c0-0.2,0-0.4,0-0.4c0-0.1,0.1-0.1,0.1-0.2s0.1-0.1,0.2-0.1c0.1,0,0.1,0,0.2,0.1
				s0.1,0.1,0.1,0.2C63.9,44.9,63.9,45.1,63.9,45.3z"/>
			<path class="st2" d="M21.9,53.7v4.2c0,0.2,0,0.4,0,0.4c0,0.1-0.1,0.1-0.1,0.2s-0.1,0.1-0.2,0.1c-0.1,0-0.2,0-0.2-0.1
				s-0.1-0.1-0.1-0.2c0,0,0-0.2,0-0.4v-4.2c0-0.2,0-0.4,0-0.4c0-0.1,0.1-0.1,0.1-0.2s0.1-0.1,0.2-0.1c0.1,0,0.1,0,0.2,0.1
				s0.1,0.1,0.1,0.2C21.9,53.3,21.9,53.5,21.9,53.7z"/>
			<path class="st2" d="M37.6,52.8l2.2,4.8c0,0,0,0.1,0.1,0.2c0,0.1,0,0.1,0,0.1c0,0.1,0,0.2-0.1,0.2c-0.1,0.1-0.1,0.1-0.2,0.1
				c-0.1,0-0.2,0-0.2-0.1s-0.1-0.1-0.2-0.2l-2.2-4.8c-0.1-0.1-0.1-0.2-0.1-0.3c0-0.1,0-0.2,0.1-0.2s0.2-0.1,0.2-0.1
				c0.1,0,0.2,0,0.2,0.1S37.5,52.7,37.6,52.8z"/>
			<path class="st2" d="M44,53.1l-2.2,4.8c-0.1,0.1-0.1,0.2-0.2,0.2c-0.1,0-0.1,0.1-0.2,0.1c-0.1,0-0.2,0-0.2-0.1S41,58,41,57.9
				c0-0.1,0-0.2,0.1-0.3l2.3-4.8c0.1-0.1,0.1-0.2,0.2-0.2c0.1,0,0.1-0.1,0.2-0.1c0.1,0,0.2,0,0.2,0.1c0.1,0.1,0.1,0.1,0.1,0.2
				C44.1,52.9,44.1,53,44,53.1z"/>
			<path class="st2" d="M52.4,53.1l-2.2,4.8c-0.1,0.1-0.1,0.2-0.2,0.2c-0.1,0-0.1,0.1-0.2,0.1c-0.1,0-0.2,0-0.2-0.1
				s-0.1-0.1-0.1-0.2c0-0.1,0-0.2,0.1-0.3l2.3-4.8c0.1-0.1,0.1-0.2,0.2-0.2c0.1,0,0.1-0.1,0.2-0.1c0.1,0,0.2,0,0.2,0.1
				c0.1,0.1,0.1,0.1,0.1,0.2C52.5,52.9,52.5,53,52.4,53.1z"/>
			<path class="st2" d="M55.5,53.7v4.2c0,0.2,0,0.4,0,0.4c0,0.1-0.1,0.1-0.1,0.2s-0.1,0.1-0.2,0.1c-0.1,0-0.2,0-0.2-0.1
				s-0.1-0.1-0.1-0.2c0,0,0-0.2,0-0.4v-4.2c0-0.2,0-0.4,0-0.4c0-0.1,0.1-0.1,0.1-0.2s0.1-0.1,0.2-0.1c0.1,0,0.1,0,0.2,0.1
				s0.1,0.1,0.1,0.2C55.5,53.3,55.5,53.5,55.5,53.7z"/>
			<path class="st2" d="M63.9,53.7v4.2c0,0.2,0,0.4,0,0.4c0,0.1-0.1,0.1-0.1,0.2s-0.1,0.1-0.2,0.1c-0.1,0-0.2,0-0.2-0.1
				s-0.1-0.1-0.1-0.2c0,0,0-0.2,0-0.4v-4.2c0-0.2,0-0.4,0-0.4c0-0.1,0.1-0.1,0.1-0.2s0.1-0.1,0.2-0.1c0.1,0,0.1,0,0.2,0.1
				s0.1,0.1,0.1,0.2C63.9,53.3,63.9,53.5,63.9,53.7z"/>
			<path class="st2" d="M21.9,62.1v4.2c0,0.2,0,0.4,0,0.4c0,0.1-0.1,0.1-0.1,0.2c-0.1,0-0.1,0.1-0.2,0.1c-0.1,0-0.2,0-0.2-0.1
				c-0.1,0-0.1-0.1-0.1-0.2c0,0,0-0.2,0-0.4v-4.2c0-0.2,0-0.4,0-0.4c0-0.1,0.1-0.1,0.1-0.2s0.1-0.1,0.2-0.1c0.1,0,0.1,0,0.2,0.1
				s0.1,0.1,0.1,0.2C21.9,61.7,21.9,61.9,21.9,62.1z"/>
			<path class="st2" d="M30.3,62.1v4.2c0,0.2,0,0.4,0,0.4c0,0.1-0.1,0.1-0.1,0.2c-0.1,0-0.1,0.1-0.2,0.1c-0.1,0-0.2,0-0.2-0.1
				c-0.1,0-0.1-0.1-0.1-0.2c0,0,0-0.2,0-0.4v-4.2c0-0.2,0-0.4,0-0.4c0-0.1,0.1-0.1,0.1-0.2s0.1-0.1,0.2-0.1c0.1,0,0.1,0,0.2,0.1
				s0.1,0.1,0.1,0.2C30.3,61.7,30.3,61.9,30.3,62.1z"/>
			<path class="st2" d="M33.4,61.2l2.2,4.8c0,0,0,0.1,0.1,0.2c0,0.1,0,0.1,0,0.1c0,0.1,0,0.2-0.1,0.2c-0.1,0.1-0.1,0.1-0.2,0.1
				c-0.1,0-0.2,0-0.2-0.1S35,66.5,35,66.3l-2.2-4.8c-0.1-0.1-0.1-0.2-0.1-0.3c0-0.1,0-0.2,0.1-0.2s0.2-0.1,0.2-0.1
				c0.1,0,0.2,0,0.2,0.1S33.3,61.1,33.4,61.2z"/>
			<path class="st2" d="M40.3,68h-3.8c-0.2,0-0.3,0-0.4-0.1C36,67.8,36,67.7,36,67.6c0-0.1,0-0.2,0.1-0.3c0.1-0.1,0.2-0.1,0.4-0.1
				h3.8c0.2,0,0.3,0,0.4,0.1c0.1,0.1,0.1,0.1,0.1,0.3c0,0.1,0,0.2-0.1,0.3C40.6,67.9,40.5,68,40.3,68z"/>
			<path class="st2" d="M44.5,68h-3.8c-0.2,0-0.3,0-0.4-0.1c-0.1-0.1-0.1-0.1-0.1-0.3c0-0.1,0-0.2,0.1-0.3c0.1-0.1,0.2-0.1,0.4-0.1
				h3.8c0.2,0,0.3,0,0.4,0.1c0.1,0.1,0.1,0.1,0.1,0.3c0,0.1,0,0.2-0.1,0.3C44.8,67.9,44.7,68,44.5,68z"/>
			<path class="st2" d="M48.2,61.5L46,66.3c-0.1,0.1-0.1,0.2-0.2,0.2c-0.1,0-0.1,0.1-0.2,0.1c-0.1,0-0.2,0-0.2-0.1s-0.1-0.1-0.1-0.2
				c0-0.1,0-0.2,0.1-0.3l2.3-4.8c0.1-0.1,0.1-0.2,0.2-0.2c0.1,0,0.1-0.1,0.2-0.1c0.1,0,0.2,0,0.2,0.1c0.1,0.1,0.1,0.1,0.1,0.2
				C48.3,61.3,48.3,61.4,48.2,61.5z"/>
			<path class="st2" d="M55.5,62.1v4.2c0,0.2,0,0.4,0,0.4c0,0.1-0.1,0.1-0.1,0.2c-0.1,0-0.1,0.1-0.2,0.1c-0.1,0-0.2,0-0.2-0.1
				c-0.1,0-0.1-0.1-0.1-0.2c0,0,0-0.2,0-0.4v-4.2c0-0.2,0-0.4,0-0.4c0-0.1,0.1-0.1,0.1-0.2s0.1-0.1,0.2-0.1c0.1,0,0.1,0,0.2,0.1
				s0.1,0.1,0.1,0.2C55.5,61.7,55.5,61.9,55.5,62.1z"/>
			<path class="st2" d="M63.9,62.1v4.2c0,0.2,0,0.4,0,0.4c0,0.1-0.1,0.1-0.1,0.2c-0.1,0-0.1,0.1-0.2,0.1c-0.1,0-0.2,0-0.2-0.1
				c-0.1,0-0.1-0.1-0.1-0.2c0,0,0-0.2,0-0.4v-4.2c0-0.2,0-0.4,0-0.4c0-0.1,0.1-0.1,0.1-0.2s0.1-0.1,0.2-0.1c0.1,0,0.1,0,0.2,0.1
				s0.1,0.1,0.1,0.2C63.9,61.7,63.9,61.9,63.9,62.1z"/>
			<path class="st2" d="M21.9,70.5v4.2c0,0.2,0,0.4,0,0.4c0,0.1-0.1,0.1-0.1,0.2c-0.1,0-0.1,0.1-0.2,0.1c-0.1,0-0.2,0-0.2-0.1
				c-0.1,0-0.1-0.1-0.1-0.2c0,0,0-0.2,0-0.4v-4.2c0-0.2,0-0.4,0-0.4c0-0.1,0.1-0.1,0.1-0.2c0.1,0,0.1-0.1,0.2-0.1
				c0.1,0,0.1,0,0.2,0.1c0.1,0,0.1,0.1,0.1,0.2C21.9,70.1,21.9,70.3,21.9,70.5z"/>
			<path class="st2" d="M30.3,70.5v4.2c0,0.2,0,0.4,0,0.4c0,0.1-0.1,0.1-0.1,0.2c-0.1,0-0.1,0.1-0.2,0.1c-0.1,0-0.2,0-0.2-0.1
				c-0.1,0-0.1-0.1-0.1-0.2c0,0,0-0.2,0-0.4v-4.2c0-0.2,0-0.4,0-0.4c0-0.1,0.1-0.1,0.1-0.2c0.1,0,0.1-0.1,0.2-0.1
				c0.1,0,0.1,0,0.2,0.1c0.1,0,0.1,0.1,0.1,0.2C30.3,70.1,30.3,70.3,30.3,70.5z"/>
			<path class="st2" d="M55.5,70.5v4.2c0,0.2,0,0.4,0,0.4c0,0.1-0.1,0.1-0.1,0.2c-0.1,0-0.1,0.1-0.2,0.1c-0.1,0-0.2,0-0.2-0.1
				c-0.1,0-0.1-0.1-0.1-0.2c0,0,0-0.2,0-0.4v-4.2c0-0.2,0-0.4,0-0.4c0-0.1,0.1-0.1,0.1-0.2c0.1,0,0.1-0.1,0.2-0.1
				c0.1,0,0.1,0,0.2,0.1c0.1,0,0.1,0.1,0.1,0.2C55.5,70.1,55.5,70.3,55.5,70.5z"/>
			<path class="st2" d="M63.9,70.5v4.2c0,0.2,0,0.4,0,0.4c0,0.1-0.1,0.1-0.1,0.2c-0.1,0-0.1,0.1-0.2,0.1c-0.1,0-0.2,0-0.2-0.1
				c-0.1,0-0.1-0.1-0.1-0.2c0,0,0-0.2,0-0.4v-4.2c0-0.2,0-0.4,0-0.4c0-0.1,0.1-0.1,0.1-0.2c0.1,0,0.1-0.1,0.2-0.1
				c0.1,0,0.1,0,0.2,0.1c0.1,0,0.1,0.1,0.1,0.2C63.9,70.1,63.9,70.3,63.9,70.5z"/>
			<path class="st2" d="M21.9,78.9v4.2c0,0.2,0,0.4,0,0.4c0,0.1-0.1,0.1-0.1,0.2c-0.1,0-0.1,0.1-0.2,0.1c-0.1,0-0.2,0-0.2-0.1
				c-0.1,0-0.1-0.1-0.1-0.2c0,0,0-0.2,0-0.4v-4.2c0-0.2,0-0.4,0-0.4c0-0.1,0.1-0.1,0.1-0.2c0.1,0,0.1-0.1,0.2-0.1
				c0.1,0,0.1,0,0.2,0.1c0.1,0,0.1,0.1,0.1,0.2C21.9,78.5,21.9,78.7,21.9,78.9z"/>
			<path class="st2" d="M27.7,84.8h-3.8c-0.2,0-0.3,0-0.4-0.1c-0.1-0.1-0.1-0.1-0.1-0.3c0-0.1,0-0.2,0.1-0.3
				c0.1-0.1,0.2-0.1,0.4-0.1h3.8c0.2,0,0.3,0,0.4,0.1c0.1,0.1,0.1,0.1,0.1,0.3c0,0.1,0,0.2-0.1,0.3C28,84.7,27.9,84.8,27.7,84.8z"/>
			<path class="st2" d="M30.3,78.9v4.2c0,0.2,0,0.4,0,0.4c0,0.1-0.1,0.1-0.1,0.2c-0.1,0-0.1,0.1-0.2,0.1c-0.1,0-0.2,0-0.2-0.1
				c-0.1,0-0.1-0.1-0.1-0.2c0,0,0-0.2,0-0.4v-4.2c0-0.2,0-0.4,0-0.4c0-0.1,0.1-0.1,0.1-0.2c0.1,0,0.1-0.1,0.2-0.1
				c0.1,0,0.1,0,0.2,0.1c0.1,0,0.1,0.1,0.1,0.2C30.3,78.5,30.3,78.7,30.3,78.9z"/>
			<path class="st2" d="M55.5,78.9v4.2c0,0.2,0,0.4,0,0.4c0,0.1-0.1,0.1-0.1,0.2c-0.1,0-0.1,0.1-0.2,0.1c-0.1,0-0.2,0-0.2-0.1
				c-0.1,0-0.1-0.1-0.1-0.2c0,0,0-0.2,0-0.4v-4.2c0-0.2,0-0.4,0-0.4c0-0.1,0.1-0.1,0.1-0.2c0.1,0,0.1-0.1,0.2-0.1
				c0.1,0,0.1,0,0.2,0.1c0.1,0,0.1,0.1,0.1,0.2C55.5,78.5,55.5,78.7,55.5,78.9z"/>
			<path class="st2" d="M61.3,84.8h-3.8c-0.2,0-0.3,0-0.4-0.1C57,84.6,57,84.5,57,84.4c0-0.1,0-0.2,0.1-0.3c0.1-0.1,0.2-0.1,0.4-0.1
				h3.8c0.2,0,0.3,0,0.4,0.1c0.1,0.1,0.1,0.1,0.1,0.3c0,0.1,0,0.2-0.1,0.3C61.6,84.7,61.5,84.8,61.3,84.8z"/>
			<path class="st2" d="M63.9,78.9v4.2c0,0.2,0,0.4,0,0.4c0,0.1-0.1,0.1-0.1,0.2c-0.1,0-0.1,0.1-0.2,0.1c-0.1,0-0.2,0-0.2-0.1
				c-0.1,0-0.1-0.1-0.1-0.2c0,0,0-0.2,0-0.4v-4.2c0-0.2,0-0.4,0-0.4c0-0.1,0.1-0.1,0.1-0.2c0.1,0,0.1-0.1,0.2-0.1
				c0.1,0,0.1,0,0.2,0.1c0.1,0,0.1,0.1,0.1,0.2C63.9,78.5,63.9,78.7,63.9,78.9z"/>
		</g>
		<g>
			<path class="st2" d="M73.3,34.4h-3.8c-0.2,0-0.3,0-0.4-0.1C69,34.2,69,34.1,69,34s0-0.2,0.1-0.3c0.1-0.1,0.2-0.1,0.4-0.1h3.8
				c0.2,0,0.3,0,0.4,0.1c0.1,0.1,0.1,0.1,0.1,0.3c0,0.1,0,0.2-0.1,0.3C73.6,34.3,73.5,34.4,73.3,34.4z"/>
			<path class="st2" d="M77.5,34.4h-3.8c-0.2,0-0.3,0-0.4-0.1c-0.1-0.1-0.1-0.1-0.1-0.3s0-0.2,0.1-0.3c0.1-0.1,0.2-0.1,0.4-0.1h3.8
				c0.2,0,0.3,0,0.4,0.1C78,33.8,78,33.9,78,34c0,0.1,0,0.2-0.1,0.3C77.8,34.3,77.7,34.4,77.5,34.4z"/>
			<path class="st2" d="M81.7,34.4h-3.8c-0.2,0-0.3,0-0.4-0.1c-0.1-0.1-0.1-0.1-0.1-0.3s0-0.2,0.1-0.3c0.1-0.1,0.2-0.1,0.4-0.1h3.8
				c0.2,0,0.3,0,0.4,0.1c0.1,0.1,0.1,0.1,0.1,0.3c0,0.1,0,0.2-0.1,0.3C82,34.3,81.9,34.4,81.7,34.4z"/>
			<path class="st2" d="M85.9,34.4h-3.8c-0.2,0-0.3,0-0.4-0.1c-0.1-0.1-0.1-0.1-0.1-0.3s0-0.2,0.1-0.3c0.1-0.1,0.2-0.1,0.4-0.1h3.8
				c0.2,0,0.3,0,0.4,0.1c0.1,0.1,0.1,0.1,0.1,0.3c0,0.1,0,0.2-0.1,0.3C86.2,34.3,86.1,34.4,85.9,34.4z"/>
			<path class="st2" d="M90.1,34.4h-3.8c-0.2,0-0.3,0-0.4-0.1c-0.1-0.1-0.1-0.1-0.1-0.3s0-0.2,0.1-0.3c0.1-0.1,0.2-0.1,0.4-0.1h3.8
				c0.2,0,0.3,0,0.4,0.1c0.1,0.1,0.1,0.1,0.1,0.3c0,0.1,0,0.2-0.1,0.3C90.4,34.3,90.3,34.4,90.1,34.4z"/>
			<path class="st2" d="M71.7,36.9v4.2c0,0.2,0,0.4,0,0.4c0,0.1-0.1,0.1-0.1,0.2s-0.1,0.1-0.2,0.1c-0.1,0-0.2,0-0.2-0.1
				s-0.1-0.1-0.1-0.2c0,0,0-0.2,0-0.4v-4.2c0-0.2,0-0.4,0-0.4c0-0.1,0.1-0.1,0.1-0.2s0.1-0.1,0.2-0.1c0.1,0,0.1,0,0.2,0.1
				s0.1,0.1,0.1,0.2C71.7,36.5,71.7,36.7,71.7,36.9z"/>
			<path class="st2" d="M85.9,42.8h-3.8c-0.2,0-0.3,0-0.4-0.1c-0.1-0.1-0.1-0.1-0.1-0.3s0-0.2,0.1-0.3c0.1-0.1,0.2-0.1,0.4-0.1h3.8
				c0.2,0,0.3,0,0.4,0.1c0.1,0.1,0.1,0.1,0.1,0.3c0,0.1,0,0.2-0.1,0.3C86.2,42.7,86.1,42.8,85.9,42.8z"/>
			<path class="st2" d="M90.1,42.8h-3.8c-0.2,0-0.3,0-0.4-0.1c-0.1-0.1-0.1-0.1-0.1-0.3s0-0.2,0.1-0.3c0.1-0.1,0.2-0.1,0.4-0.1h3.8
				c0.2,0,0.3,0,0.4,0.1c0.1,0.1,0.1,0.1,0.1,0.3c0,0.1,0,0.2-0.1,0.3C90.4,42.7,90.3,42.8,90.1,42.8z"/>
			<path class="st2" d="M95.8,36l2.2,4.8c0,0,0,0.1,0.1,0.2c0,0.1,0,0.1,0,0.1c0,0.1,0,0.2-0.1,0.2c-0.1,0.1-0.1,0.1-0.2,0.1
				c-0.1,0-0.2,0-0.2-0.1s-0.1-0.1-0.2-0.2l-2.2-4.8c-0.1-0.1-0.1-0.2-0.1-0.3c0-0.1,0-0.2,0.1-0.2s0.2-0.1,0.2-0.1
				c0.1,0,0.2,0,0.2,0.1S95.7,35.9,95.8,36z"/>
			<path class="st2" d="M71.7,45.3v4.2c0,0.2,0,0.4,0,0.4c0,0.1-0.1,0.1-0.1,0.2s-0.1,0.1-0.2,0.1c-0.1,0-0.2,0-0.2-0.1
				s-0.1-0.1-0.1-0.2c0,0,0-0.2,0-0.4v-4.2c0-0.2,0-0.4,0-0.4c0-0.1,0.1-0.1,0.1-0.2s0.1-0.1,0.2-0.1c0.1,0,0.1,0,0.2,0.1
				s0.1,0.1,0.1,0.2C71.7,44.9,71.7,45.1,71.7,45.3z"/>
			<path class="st2" d="M80.1,45.3v4.2c0,0.2,0,0.4,0,0.4c0,0.1-0.1,0.1-0.1,0.2s-0.1,0.1-0.2,0.1c-0.1,0-0.2,0-0.2-0.1
				s-0.1-0.1-0.1-0.2c0,0,0-0.2,0-0.4v-4.2c0-0.2,0-0.4,0-0.4c0-0.1,0.1-0.1,0.1-0.2s0.1-0.1,0.2-0.1c0.1,0,0.1,0,0.2,0.1
				s0.1,0.1,0.1,0.2C80.1,44.9,80.1,45.1,80.1,45.3z"/>
			<path class="st2" d="M91.6,44.4l2.2,4.8c0,0,0,0.1,0.1,0.2c0,0.1,0,0.1,0,0.1c0,0.1,0,0.2-0.1,0.2c-0.1,0.1-0.1,0.1-0.2,0.1
				c-0.1,0-0.2,0-0.2-0.1s-0.1-0.1-0.2-0.2L91,44.7c-0.1-0.1-0.1-0.2-0.1-0.3c0-0.1,0-0.2,0.1-0.2s0.2-0.1,0.2-0.1
				c0.1,0,0.2,0,0.2,0.1S91.5,44.3,91.6,44.4z"/>
			<path class="st2" d="M101.2,45.3v4.2c0,0.2,0,0.4,0,0.4c0,0.1-0.1,0.1-0.1,0.2s-0.1,0.1-0.2,0.1c-0.1,0-0.2,0-0.2-0.1
				s-0.1-0.1-0.1-0.2c0,0,0-0.2,0-0.4v-4.2c0-0.2,0-0.4,0-0.4c0-0.1,0.1-0.1,0.1-0.2s0.1-0.1,0.2-0.1c0.1,0,0.1,0,0.2,0.1
				s0.1,0.1,0.1,0.2C101.1,44.9,101.2,45.1,101.2,45.3z"/>
			<path class="st2" d="M71.7,53.7v4.2c0,0.2,0,0.4,0,0.4c0,0.1-0.1,0.1-0.1,0.2s-0.1,0.1-0.2,0.1c-0.1,0-0.2,0-0.2-0.1
				s-0.1-0.1-0.1-0.2c0,0,0-0.2,0-0.4v-4.2c0-0.2,0-0.4,0-0.4c0-0.1,0.1-0.1,0.1-0.2s0.1-0.1,0.2-0.1c0.1,0,0.1,0,0.2,0.1
				s0.1,0.1,0.1,0.2C71.7,53.3,71.7,53.5,71.7,53.7z"/>
			<path class="st2" d="M80.1,53.7v4.2c0,0.2,0,0.4,0,0.4c0,0.1-0.1,0.1-0.1,0.2s-0.1,0.1-0.2,0.1c-0.1,0-0.2,0-0.2-0.1
				s-0.1-0.1-0.1-0.2c0,0,0-0.2,0-0.4v-4.2c0-0.2,0-0.4,0-0.4c0-0.1,0.1-0.1,0.1-0.2s0.1-0.1,0.2-0.1c0.1,0,0.1,0,0.2,0.1
				s0.1,0.1,0.1,0.2C80.1,53.3,80.1,53.5,80.1,53.7z"/>
			<path class="st2" d="M92.8,53.7v4.2c0,0.2,0,0.4,0,0.4c0,0.1-0.1,0.1-0.1,0.2s-0.1,0.1-0.2,0.1c-0.1,0-0.2,0-0.2-0.1
				s-0.1-0.1-0.1-0.2c0,0,0-0.2,0-0.4v-4.2c0-0.2,0-0.4,0-0.4c0-0.1,0.1-0.1,0.1-0.2s0.1-0.1,0.2-0.1c0.1,0,0.1,0,0.2,0.1
				s0.1,0.1,0.1,0.2C92.7,53.3,92.8,53.5,92.8,53.7z"/>
			<path class="st2" d="M101.2,53.7v4.2c0,0.2,0,0.4,0,0.4c0,0.1-0.1,0.1-0.1,0.2s-0.1,0.1-0.2,0.1c-0.1,0-0.2,0-0.2-0.1
				s-0.1-0.1-0.1-0.2c0,0,0-0.2,0-0.4v-4.2c0-0.2,0-0.4,0-0.4c0-0.1,0.1-0.1,0.1-0.2s0.1-0.1,0.2-0.1c0.1,0,0.1,0,0.2,0.1
				s0.1,0.1,0.1,0.2C101.1,53.3,101.2,53.5,101.2,53.7z"/>
			<path class="st2" d="M71.7,62.1v4.2c0,0.2,0,0.4,0,0.4c0,0.1-0.1,0.1-0.1,0.2c-0.1,0-0.1,0.1-0.2,0.1c-0.1,0-0.2,0-0.2-0.1
				c-0.1,0-0.1-0.1-0.1-0.2c0,0,0-0.2,0-0.4v-4.2c0-0.2,0-0.4,0-0.4c0-0.1,0.1-0.1,0.1-0.2s0.1-0.1,0.2-0.1c0.1,0,0.1,0,0.2,0.1
				s0.1,0.1,0.1,0.2C71.7,61.7,71.7,61.9,71.7,62.1z"/>
			<path class="st2" d="M80.1,62.1v4.2c0,0.2,0,0.4,0,0.4c0,0.1-0.1,0.1-0.1,0.2c-0.1,0-0.1,0.1-0.2,0.1c-0.1,0-0.2,0-0.2-0.1
				c-0.1,0-0.1-0.1-0.1-0.2c0,0,0-0.2,0-0.4v-4.2c0-0.2,0-0.4,0-0.4c0-0.1,0.1-0.1,0.1-0.2s0.1-0.1,0.2-0.1c0.1,0,0.1,0,0.2,0.1
				s0.1,0.1,0.1,0.2C80.1,61.7,80.1,61.9,80.1,62.1z"/>
			<path class="st2" d="M92.8,62.1v4.2c0,0.2,0,0.4,0,0.4c0,0.1-0.1,0.1-0.1,0.2c-0.1,0-0.1,0.1-0.2,0.1c-0.1,0-0.2,0-0.2-0.1
				c-0.1,0-0.1-0.1-0.1-0.2c0,0,0-0.2,0-0.4v-4.2c0-0.2,0-0.4,0-0.4c0-0.1,0.1-0.1,0.1-0.2s0.1-0.1,0.2-0.1c0.1,0,0.1,0,0.2,0.1
				s0.1,0.1,0.1,0.2C92.7,61.7,92.8,61.9,92.8,62.1z"/>
			<path class="st2" d="M101.2,62.1v4.2c0,0.2,0,0.4,0,0.4c0,0.1-0.1,0.1-0.1,0.2c-0.1,0-0.1,0.1-0.2,0.1c-0.1,0-0.2,0-0.2-0.1
				c-0.1,0-0.1-0.1-0.1-0.2c0,0,0-0.2,0-0.4v-4.2c0-0.2,0-0.4,0-0.4c0-0.1,0.1-0.1,0.1-0.2s0.1-0.1,0.2-0.1c0.1,0,0.1,0,0.2,0.1
				s0.1,0.1,0.1,0.2C101.1,61.7,101.2,61.9,101.2,62.1z"/>
			<path class="st2" d="M71.7,70.5v4.2c0,0.2,0,0.4,0,0.4c0,0.1-0.1,0.1-0.1,0.2c-0.1,0-0.1,0.1-0.2,0.1c-0.1,0-0.2,0-0.2-0.1
				c-0.1,0-0.1-0.1-0.1-0.2c0,0,0-0.2,0-0.4v-4.2c0-0.2,0-0.4,0-0.4c0-0.1,0.1-0.1,0.1-0.2c0.1,0,0.1-0.1,0.2-0.1
				c0.1,0,0.1,0,0.2,0.1c0.1,0,0.1,0.1,0.1,0.2C71.7,70.1,71.7,70.3,71.7,70.5z"/>
			<path class="st2" d="M80.1,70.5v4.2c0,0.2,0,0.4,0,0.4c0,0.1-0.1,0.1-0.1,0.2c-0.1,0-0.1,0.1-0.2,0.1c-0.1,0-0.2,0-0.2-0.1
				c-0.1,0-0.1-0.1-0.1-0.2c0,0,0-0.2,0-0.4v-4.2c0-0.2,0-0.4,0-0.4c0-0.1,0.1-0.1,0.1-0.2c0.1,0,0.1-0.1,0.2-0.1
				c0.1,0,0.1,0,0.2,0.1c0.1,0,0.1,0.1,0.1,0.2C80.1,70.1,80.1,70.3,80.1,70.5z"/>
			<path class="st2" d="M85.9,76.4h-3.8c-0.2,0-0.3,0-0.4-0.1c-0.1-0.1-0.1-0.1-0.1-0.3c0-0.1,0-0.2,0.1-0.3
				c0.1-0.1,0.2-0.1,0.4-0.1h3.8c0.2,0,0.3,0,0.4,0.1c0.1,0.1,0.1,0.1,0.1,0.3c0,0.1,0,0.2-0.1,0.3C86.2,76.3,86.1,76.4,85.9,76.4z"
				/>
			<path class="st2" d="M90.1,76.4h-3.8c-0.2,0-0.3,0-0.4-0.1c-0.1-0.1-0.1-0.1-0.1-0.3c0-0.1,0-0.2,0.1-0.3
				c0.1-0.1,0.2-0.1,0.4-0.1h3.8c0.2,0,0.3,0,0.4,0.1c0.1,0.1,0.1,0.1,0.1,0.3c0,0.1,0,0.2-0.1,0.3C90.4,76.3,90.3,76.4,90.1,76.4z"
				/>
			<path class="st2" d="M93.8,69.9l-2.2,4.8c-0.1,0.1-0.1,0.2-0.2,0.2c-0.1,0-0.1,0.1-0.2,0.1c-0.1,0-0.2,0-0.2-0.1
				s-0.1-0.1-0.1-0.2c0-0.1,0-0.2,0.1-0.3l2.3-4.8c0.1-0.1,0.1-0.2,0.2-0.2c0.1,0,0.1-0.1,0.2-0.1c0.1,0,0.2,0,0.2,0.1
				s0.1,0.1,0.1,0.2C93.9,69.7,93.9,69.8,93.8,69.9z"/>
			<path class="st2" d="M102.2,69.9l-2.2,4.8c-0.1,0.1-0.1,0.2-0.2,0.2c-0.1,0-0.1,0.1-0.2,0.1c-0.1,0-0.2,0-0.2-0.1
				s-0.1-0.1-0.1-0.2c0-0.1,0-0.2,0.1-0.3l2.3-4.8c0.1-0.1,0.1-0.2,0.2-0.2c0.1,0,0.1-0.1,0.2-0.1c0.1,0,0.2,0,0.2,0.1
				s0.1,0.1,0.1,0.2C102.3,69.7,102.3,69.8,102.2,69.9z"/>
			<path class="st2" d="M71.7,78.9v4.2c0,0.2,0,0.4,0,0.4c0,0.1-0.1,0.1-0.1,0.2c-0.1,0-0.1,0.1-0.2,0.1c-0.1,0-0.2,0-0.2-0.1
				c-0.1,0-0.1-0.1-0.1-0.2c0,0,0-0.2,0-0.4v-4.2c0-0.2,0-0.4,0-0.4c0-0.1,0.1-0.1,0.1-0.2c0.1,0,0.1-0.1,0.2-0.1
				c0.1,0,0.1,0,0.2,0.1c0.1,0,0.1,0.1,0.1,0.2C71.7,78.5,71.7,78.7,71.7,78.9z"/>
			<path class="st2" d="M77.5,84.8h-3.8c-0.2,0-0.3,0-0.4-0.1c-0.1-0.1-0.1-0.1-0.1-0.3c0-0.1,0-0.2,0.1-0.3
				c0.1-0.1,0.2-0.1,0.4-0.1h3.8c0.2,0,0.3,0,0.4,0.1c0.1,0.1,0.1,0.1,0.1,0.3c0,0.1,0,0.2-0.1,0.3C77.8,84.7,77.7,84.8,77.5,84.8z"
				/>
			<path class="st2" d="M81.7,84.8h-3.8c-0.2,0-0.3,0-0.4-0.1c-0.1-0.1-0.1-0.1-0.1-0.3c0-0.1,0-0.2,0.1-0.3
				c0.1-0.1,0.2-0.1,0.4-0.1h3.8c0.2,0,0.3,0,0.4,0.1c0.1,0.1,0.1,0.1,0.1,0.3c0,0.1,0,0.2-0.1,0.3C82,84.7,81.9,84.8,81.7,84.8z"/>
			<path class="st2" d="M85.9,84.8h-3.8c-0.2,0-0.3,0-0.4-0.1c-0.1-0.1-0.1-0.1-0.1-0.3c0-0.1,0-0.2,0.1-0.3
				c0.1-0.1,0.2-0.1,0.4-0.1h3.8c0.2,0,0.3,0,0.4,0.1c0.1,0.1,0.1,0.1,0.1,0.3c0,0.1,0,0.2-0.1,0.3C86.2,84.7,86.1,84.8,85.9,84.8z"
				/>
			<path class="st2" d="M90.1,84.8h-3.8c-0.2,0-0.3,0-0.4-0.1c-0.1-0.1-0.1-0.1-0.1-0.3c0-0.1,0-0.2,0.1-0.3
				c0.1-0.1,0.2-0.1,0.4-0.1h3.8c0.2,0,0.3,0,0.4,0.1c0.1,0.1,0.1,0.1,0.1,0.3c0,0.1,0,0.2-0.1,0.3C90.4,84.7,90.3,84.8,90.1,84.8z"
				/>
			<path class="st2" d="M94.3,84.8h-3.8c-0.2,0-0.3,0-0.4-0.1c-0.1-0.1-0.1-0.1-0.1-0.3c0-0.1,0-0.2,0.1-0.3
				c0.1-0.1,0.2-0.1,0.4-0.1h3.8c0.2,0,0.3,0,0.4,0.1c0.1,0.1,0.1,0.1,0.1,0.3c0,0.1,0,0.2-0.1,0.3C94.6,84.7,94.5,84.8,94.3,84.8z"
				/>
			<path class="st2" d="M98,78.3l-2.2,4.8c-0.1,0.1-0.1,0.2-0.2,0.2c-0.1,0-0.1,0.1-0.2,0.1c-0.1,0-0.2,0-0.2-0.1s-0.1-0.1-0.1-0.2
				c0-0.1,0-0.2,0.1-0.3l2.3-4.8c0.1-0.1,0.1-0.2,0.2-0.2c0.1,0,0.1-0.1,0.2-0.1c0.1,0,0.2,0,0.2,0.1s0.1,0.1,0.1,0.2
				C98.1,78.1,98.1,78.2,98,78.3z"/>
		</g>
	</g>
	<g>
	</g>
	<g>
		<path class="st2" d="M40.9,94.8v6.5h1.1c0.4,0,0.7,0.1,0.9,0.2s0.3,0.4,0.3,0.6c0,0.2-0.1,0.4-0.3,0.6s-0.5,0.2-0.9,0.2h-3.9
			c-0.4,0-0.7-0.1-0.9-0.2s-0.3-0.4-0.3-0.6c0-0.2,0.1-0.4,0.3-0.6s0.5-0.2,0.9-0.2h1.1v-6.5h-1.8v1.6c0,0.4-0.1,0.7-0.2,0.9
			c-0.2,0.2-0.4,0.3-0.6,0.3c-0.2,0-0.4-0.1-0.6-0.3c-0.2-0.2-0.2-0.5-0.2-0.9v-3.2l8.6,0v3.2c0,0.4-0.1,0.7-0.2,0.9
			s-0.4,0.3-0.6,0.3c-0.2,0-0.4-0.1-0.6-0.3s-0.2-0.5-0.2-0.9v-1.6H40.9z"/>
		<path class="st2" d="M54.4,99.4c0,0.6-0.2,1.3-0.5,1.8c-0.4,0.6-0.9,1.1-1.6,1.4c-0.7,0.4-1.4,0.5-2.2,0.5c-0.8,0-1.5-0.2-2.2-0.5
			c-0.7-0.3-1.2-0.8-1.6-1.4c-0.4-0.6-0.5-1.2-0.5-1.9c0-0.7,0.2-1.3,0.5-2c0.4-0.6,0.9-1.1,1.6-1.5c0.7-0.4,1.4-0.5,2.2-0.5
			c0.8,0,1.5,0.2,2.2,0.6c0.7,0.4,1.2,0.9,1.6,1.5C54.2,98.1,54.4,98.7,54.4,99.4z M52.7,99.4c0-0.5-0.2-1-0.6-1.5
			c-0.5-0.6-1.2-0.9-2.1-0.9c-0.7,0-1.4,0.2-1.9,0.7c-0.5,0.5-0.8,1-0.8,1.7c0,0.5,0.3,1,0.8,1.5c0.5,0.5,1.1,0.7,1.9,0.7
			c0.7,0,1.4-0.2,1.9-0.7C52.5,100.4,52.7,99.9,52.7,99.4z"/>
		<path class="st2" d="M64.3,99.4c0,0.6-0.2,1.3-0.5,1.8c-0.4,0.6-0.9,1.1-1.6,1.4c-0.7,0.4-1.4,0.5-2.2,0.5c-0.8,0-1.5-0.2-2.2-0.5
			c-0.7-0.3-1.2-0.8-1.6-1.4c-0.4-0.6-0.5-1.2-0.5-1.9c0-0.7,0.2-1.3,0.5-2c0.4-0.6,0.9-1.1,1.6-1.5c0.7-0.4,1.4-0.5,2.2-0.5
			c0.8,0,1.5,0.2,2.2,0.6c0.7,0.4,1.2,0.9,1.6,1.5C64.1,98.1,64.3,98.7,64.3,99.4z M62.6,99.4c0-0.5-0.2-1-0.6-1.5
			C61.6,97.3,60.9,97,60,97c-0.7,0-1.4,0.2-1.9,0.7c-0.5,0.5-0.8,1-0.8,1.7c0,0.5,0.3,1,0.8,1.5c0.5,0.5,1.1,0.7,1.9,0.7
			c0.7,0,1.4-0.2,1.9-0.7C62.4,100.4,62.6,99.9,62.6,99.4z"/>
		<path class="st2" d="M70.8,92.5v8.8h2c0.4,0,0.7,0.1,0.9,0.2s0.3,0.4,0.3,0.6c0,0.2-0.1,0.4-0.3,0.6s-0.5,0.2-0.9,0.2h-5.6
			c-0.4,0-0.7-0.1-0.9-0.2c-0.2-0.2-0.3-0.4-0.3-0.6c0-0.2,0.1-0.4,0.3-0.6c0.2-0.2,0.5-0.2,0.9-0.2h2v-7.2h-1.3
			c-0.4,0-0.7-0.1-0.8-0.2c-0.2-0.2-0.3-0.4-0.3-0.6c0-0.2,0.1-0.4,0.3-0.6s0.5-0.2,0.9-0.2H70.8z"/>
		<path class="st2" d="M81.7,97.5c-0.3-0.2-0.6-0.3-0.8-0.4c-0.3-0.1-0.6-0.1-0.9-0.1c-0.6,0-1.2,0.1-1.5,0.3
			c-0.2,0.1-0.3,0.2-0.3,0.3c0,0.1,0.1,0.2,0.3,0.4c0.2,0.1,0.6,0.2,1.2,0.3c1.1,0.2,1.9,0.3,2.3,0.5c0.6,0.2,1,0.5,1.3,0.9
			c0.3,0.4,0.5,0.8,0.5,1.2c0,0.6-0.3,1.1-0.8,1.5c-0.7,0.6-1.7,0.9-2.9,0.9c-0.5,0-0.9,0-1.3-0.1c-0.4-0.1-0.8-0.2-1.1-0.4
			c-0.1,0.1-0.2,0.1-0.3,0.2c-0.1,0-0.2,0.1-0.3,0.1c-0.3,0-0.5-0.1-0.6-0.3c-0.2-0.2-0.2-0.5-0.2-0.9v-0.6c0-0.4,0.1-0.7,0.2-0.9
			c0.2-0.2,0.4-0.3,0.6-0.3c0.2,0,0.4,0.1,0.5,0.2c0.1,0.1,0.2,0.3,0.3,0.6c0.3,0.2,0.6,0.4,0.9,0.5c0.4,0.1,0.8,0.2,1.2,0.2
			c0.8,0,1.3-0.1,1.8-0.4c0.2-0.1,0.3-0.2,0.3-0.4c0-0.2-0.1-0.4-0.4-0.5c-0.3-0.1-0.9-0.3-1.8-0.4c-1.3-0.1-2.2-0.4-2.7-0.8
			c-0.4-0.4-0.7-0.9-0.7-1.5c0-0.6,0.3-1.1,0.8-1.5c0.7-0.5,1.6-0.8,2.7-0.8c0.4,0,0.8,0,1.1,0.1c0.4,0.1,0.7,0.2,1,0.3
			c0.1-0.1,0.2-0.1,0.3-0.2c0.1,0,0.2-0.1,0.2-0.1c0.2,0,0.4,0.1,0.6,0.3c0.2,0.2,0.2,0.5,0.2,0.9v0.4c0,0.4,0,0.6-0.1,0.7
			c-0.2,0.2-0.4,0.4-0.7,0.4c-0.2,0-0.4-0.1-0.5-0.2C81.8,97.9,81.7,97.7,81.7,97.5z"/>
	</g>
</g>
<g id="Guides" class="st3">
	<g class="st4">
		<g class="st1">
			<rect class="st5" width="120" height="120"/>
			<line class="st5" x1="0" y1="117.1" x2="120" y2="117.1"/>
			<line class="st5" x1="0" y1="114.1" x2="120" y2="114.1"/>
			<line class="st5" x1="0" y1="111.2" x2="120" y2="111.2"/>
			<line class="st5" x1="0" y1="108.3" x2="120" y2="108.3"/>
			<line class="st5" x1="0" y1="105.4" x2="120" y2="105.4"/>
			<line class="st5" x1="0" y1="102.4" x2="120" y2="102.4"/>
			<line class="st5" x1="0" y1="99.5" x2="120" y2="99.5"/>
			<line class="st5" x1="0" y1="96.6" x2="120" y2="96.6"/>
			<line class="st5" x1="0" y1="93.7" x2="120" y2="93.7"/>
			<line class="st5" x1="0" y1="90.7" x2="120" y2="90.7"/>
			<line class="st5" x1="0" y1="87.8" x2="120" y2="87.8"/>
			<line class="st5" x1="0" y1="84.9" x2="120" y2="84.9"/>
			<line class="st5" x1="0" y1="82" x2="120" y2="82"/>
			<line class="st5" x1="0" y1="79" x2="120" y2="79"/>
			<line class="st5" x1="0" y1="76.1" x2="120" y2="76.1"/>
			<line class="st5" x1="0" y1="73.2" x2="120" y2="73.2"/>
			<line class="st5" x1="0" y1="70.2" x2="120" y2="70.2"/>
			<line class="st5" x1="0" y1="67.3" x2="120" y2="67.3"/>
			<line class="st5" x1="0" y1="64.4" x2="120" y2="64.4"/>
			<line class="st5" x1="0" y1="61.5" x2="120" y2="61.5"/>
			<line class="st5" x1="0" y1="58.5" x2="120" y2="58.5"/>
			<line class="st5" x1="0" y1="55.6" x2="120" y2="55.6"/>
			<line class="st5" x1="0" y1="52.7" x2="120" y2="52.7"/>
			<line class="st5" x1="0" y1="49.8" x2="120" y2="49.8"/>
			<line class="st5" x1="0" y1="46.8" x2="120" y2="46.8"/>
			<line class="st5" x1="0" y1="43.9" x2="120" y2="43.9"/>
			<line class="st5" x1="0" y1="41" x2="120" y2="41"/>
			<line class="st5" x1="0" y1="38" x2="120" y2="38"/>
			<line class="st5" x1="0" y1="35.1" x2="120" y2="35.1"/>
			<line class="st5" x1="0" y1="32.2" x2="120" y2="32.2"/>
			<line class="st5" x1="0" y1="29.3" x2="120" y2="29.3"/>
			<line class="st5" x1="0" y1="26.3" x2="120" y2="26.3"/>
			<line class="st5" x1="0" y1="23.4" x2="120" y2="23.4"/>
			<line class="st5" x1="0" y1="20.5" x2="120" y2="20.5"/>
			<line class="st5" x1="0" y1="17.6" x2="120" y2="17.6"/>
			<line class="st5" x1="0" y1="14.6" x2="120" y2="14.6"/>
			<line class="st5" x1="0" y1="11.7" x2="120" y2="11.7"/>
			<line class="st5" x1="0" y1="8.8" x2="120" y2="8.8"/>
			<line class="st5" x1="0" y1="5.9" x2="120" y2="5.9"/>
			<line class="st5" x1="0" y1="2.9" x2="120" y2="2.9"/>
			<line class="st5" x1="117.1" y1="0" x2="117.1" y2="120"/>
			<line class="st5" x1="114.1" y1="0" x2="114.1" y2="120"/>
			<line class="st5" x1="111.2" y1="0" x2="111.2" y2="120"/>
			<line class="st5" x1="108.3" y1="0" x2="108.3" y2="120"/>
			<line class="st5" x1="105.4" y1="0" x2="105.4" y2="120"/>
			<line class="st5" x1="102.4" y1="0" x2="102.4" y2="120"/>
			<line class="st5" x1="99.5" y1="0" x2="99.5" y2="120"/>
			<line class="st5" x1="96.6" y1="0" x2="96.6" y2="120"/>
			<line class="st5" x1="93.7" y1="0" x2="93.7" y2="120"/>
			<line class="st5" x1="90.7" y1="0" x2="90.7" y2="120"/>
			<line class="st5" x1="87.8" y1="0" x2="87.8" y2="120"/>
			<line class="st5" x1="84.9" y1="0" x2="84.9" y2="120"/>
			<line class="st5" x1="82" y1="0" x2="82" y2="120"/>
			<line class="st5" x1="79" y1="0" x2="79" y2="120"/>
			<line class="st5" x1="76.1" y1="0" x2="76.1" y2="120"/>
			<line class="st5" x1="73.2" y1="0" x2="73.2" y2="120"/>
			<line class="st5" x1="70.2" y1="0" x2="70.2" y2="120"/>
			<line class="st5" x1="67.3" y1="0" x2="67.3" y2="120"/>
			<line class="st5" x1="64.4" y1="0" x2="64.4" y2="120"/>
			<line class="st5" x1="61.5" y1="0" x2="61.5" y2="120"/>
			<line class="st5" x1="58.5" y1="0" x2="58.5" y2="120"/>
			<line class="st5" x1="55.6" y1="0" x2="55.6" y2="120"/>
			<line class="st5" x1="52.7" y1="0" x2="52.7" y2="120"/>
			<line class="st5" x1="49.8" y1="0" x2="49.8" y2="120"/>
			<line class="st5" x1="46.8" y1="0" x2="46.8" y2="120"/>
			<line class="st5" x1="43.9" y1="0" x2="43.9" y2="120"/>
			<line class="st5" x1="41" y1="0" x2="41" y2="120"/>
			<line class="st5" x1="38" y1="0" x2="38" y2="120"/>
			<line class="st5" x1="35.1" y1="0" x2="35.1" y2="120"/>
			<line class="st5" x1="32.2" y1="0" x2="32.2" y2="120"/>
			<line class="st5" x1="29.3" y1="0" x2="29.3" y2="120"/>
			<line class="st5" x1="26.3" y1="0" x2="26.3" y2="120"/>
			<line class="st5" x1="23.4" y1="0" x2="23.4" y2="120"/>
			<line class="st5" x1="20.5" y1="0" x2="20.5" y2="120"/>
			<line class="st5" x1="17.6" y1="0" x2="17.6" y2="120"/>
			<line class="st5" x1="14.6" y1="0" x2="14.6" y2="120"/>
			<line class="st5" x1="11.7" y1="0" x2="11.7" y2="120"/>
			<line class="st5" x1="8.8" y1="0" x2="8.8" y2="120"/>
			<line class="st5" x1="5.9" y1="0" x2="5.9" y2="120"/>
			<line class="st5" x1="2.9" y1="0" x2="2.9" y2="120"/>
		</g>
		<circle class="st5" cx="60" cy="60" r="60"/>
		<circle class="st5" cx="60" cy="60" r="45.4"/>
	</g>
</g>
</svg>
